<?xml version="1.0" standalone="no"?>
<!DOCTYPE svg PUBLIC "-//W3C//DTD SVG 20010904//EN"
 "http://www.w3.org/TR/2001/REC-SVG-20010904/DTD/svg10.dtd">
<svg version="1.0" xmlns="http://www.w3.org/2000/svg"
 width="363.000000pt" height="363.000000pt" viewBox="0 0 363.000000 363.000000"
 preserveAspectRatio="xMidYMid meet">
<metadata>
Created by potrace 1.14, written by Peter Selinger 2001-2017
</metadata>
<g transform="translate(0.000000,363.000000) scale(0.100000,-0.100000)"
fill="#000000" stroke="none">
<path d="M1020 2340 c-17 -17 -20 -33 -20 -111 0 -102 6 -96 -75 -65 -112 42
-253 -8 -321 -115 -27 -44 -30 -59 -10 -59 15 0 77 -65 96 -100 6 -11 23 -25
37 -31 35 -13 61 12 74 72 5 24 17 63 27 86 14 36 21 42 55 47 21 4 45 2 55
-3 9 -5 40 -11 67 -14 65 -7 80 -13 95 -42 17 -31 2 -51 -49 -65 -46 -12 -94
-63 -109 -115 -24 -84 -116 -155 -201 -155 -55 0 -58 -14 -8 -36 29 -13 63
-19 112 -18 88 1 150 29 205 91 59 67 73 122 71 272 -1 69 -3 177 -4 239 -2
100 -4 115 -21 128 -27 19 -52 18 -76 -6z"/>
<path d="M2340 2338 c-27 -29 -25 -69 3 -96 30 -28 62 -28 91 1 29 29 27 74
-4 99 -30 24 -65 23 -90 -4z"/>
<path d="M197 2166 c-94 -35 -164 -110 -188 -201 -13 -48 -5 -144 16 -189 26
-55 75 -106 129 -134 68 -35 179 -38 241 -5 l40 21 18 -24 c21 -28 58 -31 81
-8 19 19 17 0 22 174 5 168 -6 211 -65 278 -72 80 -207 120 -294 88z m146
-120 c63 -27 110 -106 100 -170 -23 -152 -204 -197 -296 -74 -40 53 -31 162
16 206 54 51 118 64 180 38z"/>
<path d="M1353 2171 c-85 -22 -178 -106 -193 -176 -1 -5 -6 -15 -10 -20 -5 -6
-8 -44 -7 -85 3 -115 53 -197 150 -246 82 -42 197 -41 261 2 16 11 22 10 38
-12 24 -30 52 -31 81 -1 21 21 22 30 22 182 0 154 -1 162 -27 210 -58 112
-197 176 -315 146z m130 -126 c39 -16 84 -65 93 -101 4 -14 4 -46 1 -71 -17
-153 -222 -195 -297 -61 -78 138 57 294 203 233z"/>
<path d="M2668 2166 c-111 -40 -191 -151 -191 -269 -1 -107 59 -204 157 -255
65 -34 172 -36 235 -5 l40 20 24 -25 c29 -28 69 -25 86 7 6 10 11 88 12 172 2
143 1 158 -21 202 -62 129 -216 198 -342 153z m182 -136 c44 -31 74 -100 66
-152 -14 -87 -62 -135 -144 -145 -101 -12 -185 71 -177 175 7 93 79 156 171
149 33 -2 63 -12 84 -27z"/>
<path d="M1960 2160 c-93 -16 -173 -80 -213 -168 -17 -39 -21 -70 -23 -187 -3
-176 8 -204 76 -195 8 1 23 9 33 19 15 15 18 35 18 137 0 65 5 136 10 157 11
42 55 86 102 103 93 32 197 -44 197 -145 2 -179 6 -239 18 -253 20 -25 60 -28
87 -6 25 19 25 22 25 163 0 120 -3 153 -20 198 -46 122 -183 200 -310 177z"/>
<path d="M3275 2154 c-75 -18 -144 -74 -182 -148 -25 -47 -27 -63 -31 -196 -4
-130 -2 -148 14 -168 26 -32 65 -37 92 -11 20 18 22 29 22 145 0 124 11 176
42 208 70 69 184 61 239 -15 22 -31 24 -45 27 -175 3 -127 6 -144 24 -164 16
-17 28 -21 51 -16 53 11 58 26 55 191 -3 137 -5 154 -28 198 -43 85 -133 149
-225 160 -22 2 -67 -2 -100 -9z"/>
<path d="M2358 2153 c-29 -8 -36 -62 -36 -286 0 -189 3 -220 17 -239 21 -25
65 -27 91 -3 19 17 20 32 20 256 0 232 -1 239 -22 259 -21 20 -36 22 -70 13z"/>
<path d="M2983 1498 c-16 -22 -84 -211 -77 -217 7 -8 34 28 34 46 0 7 6 13 13
14 81 7 85 6 101 -28 14 -29 36 -45 36 -26 0 16 -84 223 -90 223 -4 0 -12 -6
-17 -12z m41 -105 c7 -21 4 -23 -29 -23 -26 0 -36 4 -32 13 2 6 10 29 18 51
l14 38 11 -28 c6 -16 15 -39 18 -51z"/>
<path d="M3247 1501 c-2 -3 -4 -53 -5 -111 l-2 -106 51 1 c41 1 55 5 70 24 24
29 24 43 0 72 -18 22 -18 26 -4 41 13 15 14 22 3 48 -7 16 -20 30 -29 31 -9 1
-31 2 -49 4 -18 1 -34 0 -35 -4z m90 -37 c9 -24 -10 -49 -41 -52 -24 -3 -26 0
-26 32 0 33 2 36 30 36 19 0 33 -6 37 -16z m2 -89 c15 -9 14 -40 -1 -53 -7 -5
-24 -12 -38 -14 -23 -3 -25 1 -28 40 -3 43 -3 43 27 39 16 -3 35 -8 40 -12z"/>
<path d="M3530 1497 c-17 -9 -26 -22 -28 -45 -3 -29 2 -35 47 -64 54 -33 65
-60 32 -77 -18 -10 -51 -8 -70 4 -5 3 -12 1 -16 -5 -10 -17 40 -33 80 -26 71
14 71 85 0 119 -69 33 -65 81 5 79 29 -1 40 2 38 11 -6 17 -58 20 -88 4z"/>
<path d="M2626 1408 c1 -51 2 -100 3 -109 1 -12 13 -15 53 -15 31 1 53 6 56
14 2 8 -10 12 -42 12 l-46 0 1 43 c3 103 -1 147 -13 147 -10 0 -13 -24 -12
-92z"/>
</g>
</svg>
