<svg xmlns="http://www.w3.org/2000/svg" width="851" height="881" viewBox="0 0 851 881" fill="none">
                <path d="M946.332 543.402C877.706 612.028 809.03 680.704 740.306 749.428C667.269 824.709 569.376 870.931 464.722 879.55C360.068 888.169 255.728 858.603 170.986 796.317C88.3056 737.831 29.1192 651.825 4.06421 553.764C2.33028 547.283 -2.5822 539.346 3.84792 534.138C10.278 528.929 18.7399 533.022 25.7908 535.703C35.2226 540.405 43.4581 547.202 49.864 555.573C93.6577 605.994 151.538 642.154 216.017 659.374C280.496 676.595 348.606 674.084 411.535 652.166C450.477 640.581 487.762 624.053 522.48 602.986C530.849 597.262 540.369 593.431 550.378 591.759C560.388 590.087 570.646 590.615 580.444 593.305C599.79 596.587 619.481 597.257 638.992 595.299C660.167 594.248 680.964 601.337 697.122 615.111C712.447 628.484 729.433 639.821 747.658 648.839C755.178 653.476 763.658 656.326 772.444 657.167C781.23 658.008 790.087 656.819 798.329 653.691C806.571 650.563 813.979 645.58 819.98 639.127C825.981 632.674 830.415 624.924 832.939 616.476C840.366 598.187 842.78 578.236 839.932 558.676C837.084 539.116 829.077 520.653 816.735 505.19C794.671 477.117 770.8 450.515 747.055 423.787C730.605 406.427 718.884 385.142 713.016 361.975C710.974 351.623 706.525 341.891 700.031 333.565C693.536 325.238 685.178 318.551 675.631 314.045C662.718 306.985 650.83 298.192 640.295 287.911C631.856 278.187 619.918 272.189 607.093 271.229C594.268 270.269 581.599 274.426 571.855 282.79C565.79 287.518 559.007 291.244 551.76 293.827C485.556 308.588 435.718 353.539 379.489 386.511C326.708 417.468 267.378 397.507 255.081 342.984C251.638 324.327 251.69 305.202 255.235 286.583C260.53 251.333 265.551 215.977 272.13 180.918C279.644 137.119 272.515 92.0258 251.843 52.6081C247.413 43.43 245.321 37.3469 258.631 32.5898C400.245 -17.978 536.049 -10.5349 664.593 72.7578C752.49 128.496 817.138 214.313 846.429 314.132C848.077 319.478 849.494 324.928 851.311 330.316C859.38 354.898 865.548 356.778 883.531 338.963C936.619 286.296 988.99 232.915 1042.48 180.648C1052.31 169.589 1064.7 161.103 1078.57 155.926C1092.44 150.75 1107.37 149.037 1122.07 150.939C1136.77 152.841 1150.8 158.3 1162.93 166.841C1175.07 175.382 1184.94 186.749 1191.7 199.955C1200.91 217.5 1204.06 237.586 1200.65 257.075C1197.24 276.564 1187.47 294.358 1172.87 307.678C1096 384.968 1018.69 461.856 941.614 538.935C943.151 540.262 944.731 541.801 946.332 543.402Z" fill="#F39711"/>
            </svg>