<svg width="880" height="1065" viewBox="0 0 880 1065" fill="none" xmlns="http://www.w3.org/2000/svg">
<g opacity="0.12">
<path d="M415.534 989.931L336.646 862.83L384.088 776.688L388.229 778.974L342.122 862.688L419.553 987.437L415.534 989.931Z" fill="#F9FCFC"/>
<path d="M424.158 1054.98L293.957 845.198L337.318 767.204L341.45 769.509L299.437 845.07L428.172 1052.48L424.158 1054.98Z" fill="#F9FCFC"/>
<path d="M428.806 988.687C428.806 982.459 423.761 977.414 417.543 977.414C411.321 977.414 406.276 982.459 406.276 988.687C406.276 994.91 411.321 999.959 417.543 999.959C423.761 999.959 428.806 994.91 428.806 988.687Z" fill="#F9FCFC"/>
<path d="M437.425 1053.73C437.425 1047.5 432.385 1042.46 426.162 1042.46C419.945 1042.46 414.9 1047.5 414.9 1053.73C414.9 1059.96 419.945 1065 426.162 1065C432.385 1065 437.425 1059.96 437.425 1053.73Z" fill="#F9FCFC"/>
<path d="M496.841 886.213C496.841 879.99 491.796 874.94 485.579 874.94C479.352 874.94 474.312 879.99 474.312 886.213C474.312 892.441 479.352 897.49 485.579 897.49C491.796 897.49 496.841 892.441 496.841 886.213Z" fill="#F9FCFC"/>
<path d="M271.399 495.385C271.399 489.162 266.355 484.112 260.137 484.112C253.915 484.112 248.87 489.162 248.87 495.385C248.87 501.612 253.915 506.662 260.137 506.662C266.355 506.662 271.399 501.612 271.399 495.385Z" fill="#F9FCFC"/>
<path d="M215.698 337.751C215.698 331.528 210.653 326.478 204.436 326.478C198.214 326.478 193.174 331.528 193.174 337.751C193.174 343.978 198.214 349.023 204.436 349.023C210.653 349.023 215.698 343.978 215.698 337.751Z" fill="#F9FCFC"/>
<path d="M206.484 336.568L543.815 921.384L539.721 923.75L202.389 338.934" fill="#F9FCFC"/>
<path d="M262.184 494.201L487.627 885.03L483.532 887.396L258.09 496.568" fill="#F9FCFC"/>
<path d="M50.8698 191.839L388.206 776.65L384.112 779.016L46.7753 194.205" fill="#F9FCFC"/>
<path d="M4.09457 182.36L341.431 767.171L337.336 769.537L3.05176e-05 184.726" fill="#F9FCFC"/>
<path d="M814.335 760.522L743.92 631.675L648.423 630.667L648.47 625.935L746.738 626.976L818.481 758.251L814.335 760.522Z" fill="#F9FCFC"/>
<path d="M866.659 800.037L749.593 585.819L663.202 585.246L663.231 580.514L752.406 581.106L870.806 797.77L866.659 800.037Z" fill="#F9FCFC"/>
<path d="M810.864 769.201C805.451 766.14 803.541 759.264 806.6 753.845C809.663 748.427 816.533 746.515 821.947 749.576C827.365 752.638 829.271 759.514 826.212 764.938C823.148 770.356 816.278 772.268 810.864 769.201Z" fill="#F9FCFC"/>
<path d="M863.194 808.716C857.781 805.655 855.87 798.779 858.934 793.36C861.993 787.937 868.863 786.025 874.281 789.091C879.69 792.153 881.601 799.029 878.542 804.448C875.483 809.871 868.608 811.783 863.194 808.716Z" fill="#F9FCFC"/>
<path d="M688.261 778.074C682.843 775.008 680.938 768.132 683.997 762.713C687.06 757.295 693.93 755.383 699.344 758.445C704.757 761.507 706.668 768.383 703.609 773.806C700.545 779.224 693.675 781.136 688.261 778.074Z" fill="#F9FCFC"/>
<path d="M459.23 389.338C453.821 386.276 451.911 379.4 454.97 373.982C458.034 368.558 464.904 366.646 470.318 369.713C475.731 372.775 477.641 379.651 474.582 385.069C471.519 390.493 464.649 392.4 459.23 389.338Z" fill="#F9FCFC"/>
<path d="M349.526 263.25C344.112 260.183 342.202 253.307 345.266 247.889C348.32 242.465 355.199 240.558 360.608 243.62C366.027 246.682 367.937 253.558 364.873 258.981C361.814 264.4 354.944 266.312 349.526 263.25Z" fill="#F9FCFC"/>
<path d="M357.104 252.233L699.807 833.906L695.736 836.31L353.033 254.637" fill="#F9FCFC"/>
<path d="M466.809 378.321L695.836 767.058L691.765 769.462L462.739 380.725" fill="#F9FCFC"/>
<path d="M307.777 45.4254L650.484 627.099L646.409 629.503L303.706 47.8295" fill="#F9FCFC"/>
<path d="M322.547 6.10352e-05L665.255 581.678L661.179 584.082L318.477 2.40411" fill="#F9FCFC"/>
</g>
</svg>
